<?xml version="1.0" encoding="UTF-8"?>
<!DOCTYPE svg PUBLIC "-//W3C//DTD SVG 1.1//EN" "http://www.w3.org/Graphics/SVG/1.1/DTD/svg11.dtd">
<!-- Creator: CorelDRAW X7 -->
<svg xmlns="http://www.w3.org/2000/svg" xml:space="preserve" width="0.614854in" height="0.154815in" version="1.1" style="shape-rendering:geometricPrecision; text-rendering:geometricPrecision; image-rendering:optimizeQuality; fill-rule:evenodd; clip-rule:evenodd"
viewBox="0 0 618 156"
 xmlns:xlink="http://www.w3.org/1999/xlink">
 <defs>
  <style type="text/css">
   <![CDATA[
    .str0 {stroke:#333333;stroke-width:3.01609}
    .fil2 {fill:none}
    .fil0 {fill:#007681}
    .fil1 {fill:#5D5D5D}
    .fil3 {fill:white}
    .fil4 {fill:#007681;fill-rule:nonzero}
    .fil5 {fill:#333333;fill-rule:nonzero}
   ]]>
  </style>
 </defs>
 <g id="Слой_x0020_1">
  <metadata id="CorelCorpID_0Corel-Layer"/>
  <polygon class="fil0" points="154,21 0,70 0,152 154,152 "/>
  <polygon class="fil1" points="0,0 67,0 0,35 "/>
  <polygon class="fil1" points="86,0 0,40 0,59 154,0 "/>
  <polygon class="fil2" points="0,0 154,0 154,152 0,152 "/>
  <polygon class="fil3" points="0,110 113,110 0,120 "/>
  <polygon class="fil3" points="154,116 17,132 154,132 "/>
  <polygon class="fil3" points="0,91 108,91 108,59 133,59 135,68 119,68 126,82 140,82 140,100 0,99 "/>
  <path class="fil0" d="M121 88c7,0 12,5 12,12 0,7 -5,12 -12,12 -6,0 -12,-5 -12,-12 0,-7 6,-12 12,-12z"/>
  <path class="fil3" d="M121 91c6,0 10,4 10,9 0,5 -4,9 -10,9 -5,0 -9,-4 -9,-9 0,-5 4,-9 9,-9z"/>
  <path class="fil0" d="M121 96c2,0 4,2 4,4 0,2 -2,4 -4,4 -2,0 -3,-2 -3,-4 0,-2 1,-4 3,-4z"/>
  <path class="fil3" d="M130 78c5,0 10,2 10,4 0,2 -5,4 -10,4 -6,0 -10,-2 -10,-4 0,-2 4,-4 10,-4z"/>
  <polygon class="fil3" points="0,70 25,62 74,53 82,52 95,52 98,60 78,60 83,68 100,68 100,84 0,84 "/>
  <path class="fil3" d="M98 60c0,0 0,0 0,0 0,0 0,0 0,-1 0,0 0,-1 0,-3 0,-1 0,-1 -1,-2 -1,-1 -2,-2 -3,-3 -2,0 -4,0 -6,-1 -3,0 -6,1 -9,1 -4,0 -8,1 -12,2 -5,1 -11,3 -14,3 -3,1 -3,1 -3,2 0,0 0,0 5,0 4,0 12,-1 19,-1 6,-1 12,-1 15,0 4,0 5,1 5,1 1,1 1,1 2,1 0,0 0,0 1,0 0,1 1,1 1,1z"/>
  <polygon class="fil3" points="139,82 140,82 140,83 139,83 "/>
  <path class="fil3" d="M140 81c0,0 0,0 -1,0 0,0 0,-1 0,-1 -1,0 -1,-1 -2,-1 0,0 -1,0 -2,-1 -1,0 -1,0 -2,0 -1,0 -2,0 -3,0 -1,0 -2,0 -2,0 -1,0 -2,0 -2,0 0,0 -1,0 -1,0 0,0 -1,0 -1,0 0,0 0,0 0,1 -1,0 -1,0 0,1 1,0 3,1 5,1 3,0 5,1 7,1 2,0 2,0 3,0 0,0 0,0 0,0 1,0 1,0 1,0 0,0 0,0 0,-1z"/>
  <line class="fil2 str0" x1="171" y1="0" x2="171" y2= "152" />
  <path class="fil4" d="M223 54l-5 -10 -20 0 -4 10 -5 0 17 -39 5 0 17 39 -5 0zm-23 -14l16 0 -8 -19 -8 19zm33 14l0 -39 6 0 0 34 19 0 0 5 -25 0zm33 0l0 -34 -13 0 0 -5 32 0 0 5 -13 0 0 34 -6 0zm36 1c-3,0 -6,-1 -8,-2 -3,-1 -5,-2 -7,-3l2 -5c2,2 4,3 6,4 2,1 5,1 7,1 3,0 5,-1 7,-2 2,-1 2,-2 2,-4 0,-2 0,-3 -2,-4 -1,-1 -4,-2 -7,-3 -3,0 -6,-1 -8,-2 -2,-1 -3,-2 -4,-3 -1,-2 -2,-4 -2,-6 0,-2 1,-4 2,-6 1,-2 3,-3 5,-4 2,-1 5,-2 8,-2 2,0 5,1 7,2 3,0 5,2 6,3l-2 4c-1,-1 -3,-2 -5,-3 -2,-1 -4,-1 -6,-1 -3,0 -5,1 -7,2 -2,1 -2,3 -2,5 0,1 0,3 2,4 1,1 3,1 7,2 3,1 5,2 7,3 3,0 4,1 5,3 2,1 2,3 2,5 0,2 0,4 -2,6 -1,2 -3,3 -5,4 -2,1 -5,2 -8,2zm49 -40l5 0 0 39 -4 0 -22 -30 0 30 -6 0 0 -39 5 0 22 30 0 -30zm45 39l-5 -10 -19 0 -5 10 -5 0 17 -39 5 0 17 39 -5 0zm-23 -14l16 0 -7 -19 -9 19zm57 -6c2,0 4,2 5,3 1,2 2,4 2,6 0,4 -1,6 -4,8 -2,2 -5,3 -10,3l-17 0 0 -39 17 0c4,0 7,1 9,3 3,1 4,4 4,7 0,2 -1,4 -2,5 -1,2 -2,3 -4,4zm-18 -2l10 0c5,0 8,-2 8,-6 0,-3 0,-4 -2,-5 -1,-1 -3,-2 -6,-2l-10 0 0 13zm11 17c3,0 5,0 6,-1 2,-1 2,-3 2,-5 0,-2 0,-4 -2,-5 -1,-1 -3,-2 -6,-2l-11 0 0 13 11 0z"/>
  <path class="fil5" d="M442 47l7 0 0 7 -7 0 0 -7zm27 8c-3,0 -5,-1 -7,-2 -2,-1 -4,-2 -5,-3 -1,-2 -2,-4 -2,-5 0,-1 0,-1 0,-1 1,0 1,-1 1,-1l1 0c1,0 1,1 2,2 0,1 1,3 3,4 1,2 4,2 7,2 4,0 7,0 8,-2 2,-1 3,-3 3,-5 0,-1 -1,-3 -1,-3 -1,-1 -2,-2 -4,-3 -2,-1 -4,-1 -7,-2 -3,-1 -5,-2 -7,-3 -2,-1 -3,-2 -4,-3 0,-2 -1,-3 -1,-5 0,-2 1,-4 2,-6 1,-1 2,-2 4,-3 2,-1 4,-1 7,-1 3,0 5,0 7,1 2,1 4,2 5,4 1,1 1,3 1,4 0,1 0,1 0,1 0,0 -1,0 -1,0l-1 0c0,0 -1,0 -1,0 0,0 0,0 0,-1 0,-2 -1,-3 -3,-4 -2,-2 -4,-2 -7,-2 -3,0 -5,0 -7,2 -1,1 -2,2 -2,5 0,1 0,2 1,3 1,1 2,2 3,3 2,0 4,1 7,2 3,1 5,2 7,3 2,1 3,2 4,3 1,1 1,3 1,5 0,3 -1,6 -3,8 -3,2 -6,3 -11,3zm32 -1c-1,0 -1,0 -1,0 0,0 -1,-1 -1,-1l0 -35 -11 0c0,0 0,0 0,0 -1,0 -1,0 -1,-1l0 -1c0,0 0,0 1,-1 0,0 0,0 0,0l26 0c0,0 1,0 1,0 0,1 0,1 0,1l0 1c0,1 0,1 0,1 0,0 -1,0 -1,0l-11 0 0 35c0,0 0,1 0,1 -1,0 -1,0 -1,0l-1 0zm33 1c-9,0 -14,-5 -15,-16 0,-1 0,-2 0,-4 0,-2 0,-4 0,-5 1,-5 2,-9 5,-12 2,-2 6,-3 10,-3 5,0 8,1 11,3 2,3 4,7 4,12 0,2 0,4 0,5 0,0 0,2 0,4 0,11 -5,16 -15,16zm0 -4c4,0 6,-1 8,-3 2,-2 3,-5 3,-9 0,-2 0,-4 0,-4 0,-1 0,-3 0,-5 0,-4 -1,-7 -3,-9 -2,-2 -5,-3 -8,-3 -3,0 -6,1 -8,3 -2,2 -3,5 -3,9 0,1 0,3 0,5 0,1 0,3 0,4 0,4 1,7 3,9 2,2 5,3 8,3zm25 3c0,0 -1,0 -1,0 0,0 0,-1 0,-1l0 -37c0,0 0,0 0,-1 0,0 1,0 1,0l13 0c4,0 7,1 9,3 3,2 4,5 4,8 0,3 -1,6 -2,7 -2,2 -4,3 -7,4l9 15c1,1 1,1 1,1 0,0 -1,1 -1,1 0,0 0,0 -1,0l0 0c-1,0 -1,0 -1,0 -1,-1 -1,-1 -1,-1l-9 -15 -12 0 0 15c0,0 0,1 0,1 0,0 -1,0 -1,0l-1 0zm13 -20c3,0 5,0 7,-2 2,-1 2,-3 2,-6 0,-2 0,-4 -2,-6 -2,-1 -4,-2 -7,-2l-11 0 0 16 11 0zm23 20c-1,0 -1,0 -1,0 0,0 -1,-1 -1,-1l0 -37c0,0 1,0 1,-1 0,0 0,0 1,0l21 0c1,0 1,0 1,0 1,1 1,1 1,1l0 1c0,1 0,1 -1,1 0,0 0,0 -1,0l-19 0 0 15 18 0c1,0 1,0 1,0 0,0 0,1 0,1l0 1c0,0 0,0 0,1 0,0 0,0 -1,0l-18 0 0 15 20 0c0,0 1,0 1,0 0,0 0,1 0,1l0 1c0,0 0,1 0,1 0,0 -1,0 -1,0l-22 0z"/>
  <path class="fil5" d="M191 109c0,0 0,0 0,0 0,-1 0,-1 0,-1l0 -26c0,0 0,0 0,0 0,-1 0,-1 1,-1l0 0c0,0 1,0 1,1 0,0 0,0 0,0l0 22 16 -22c0,-1 1,-1 1,-1l1 0c0,0 0,0 0,1 1,0 1,0 1,0l0 26c0,0 0,0 -1,1 0,0 0,0 0,0l-1 0c0,0 0,0 -1,0 0,-1 0,-1 0,-1l0 -22 -16 22c0,1 0,1 -1,1l-1 0zm28 0c0,0 0,0 0,0 0,-1 0,-1 0,-1l0 -19c0,0 0,0 0,0 0,-1 0,-1 0,-1l1 0c0,0 1,0 1,1 0,0 0,0 0,0l0 8 12 0 0 -8c0,0 0,0 0,0 1,-1 1,-1 1,-1l1 0c0,0 0,0 0,1 1,0 1,0 1,0l0 19c0,0 0,0 -1,1 0,0 0,0 0,0l-1 0c0,0 0,0 -1,0 0,-1 0,-1 0,-1l0 -9 -12 0 0 9c0,0 0,0 0,1 0,0 -1,0 -1,0l-1 0zm29 0c0,0 0,0 0,0 -1,-1 -1,-1 -1,-1l0 -17 -7 0c0,0 0,0 0,-1 -1,0 -1,0 -1,0l0 -1c0,0 0,0 1,0 0,-1 0,-1 0,-1l17 0c0,0 0,0 1,1 0,0 0,0 0,0l0 1c0,0 0,0 0,0 -1,1 -1,1 -1,1l-7 0 0 17c0,0 0,0 -1,1 0,0 0,0 0,0l-1 0zm21 0c-2,0 -4,-1 -6,-2 -1,-2 -2,-4 -3,-7l0 -1 0 -2c1,-3 2,-5 3,-7 2,-1 4,-2 6,-2 3,0 5,1 6,3 2,2 3,4 3,7l0 1c0,0 0,0 -1,0 0,0 0,1 0,1l-14 0 0 0c0,1 0,2 1,3 0,1 1,2 2,3 1,1 2,1 3,1 1,0 3,0 4,-1 0,0 1,-1 1,-2 1,0 1,0 1,0 0,0 0,0 1,0l0 0c1,0 1,0 1,0 0,0 0,0 0,0 0,1 0,2 -1,2 -1,1 -2,2 -3,2 -1,1 -2,1 -4,1zm6 -12l0 0c0,-2 0,-3 -1,-5 -2,-1 -3,-2 -5,-2 -2,0 -3,1 -4,2 -2,2 -2,3 -2,5l0 0 12 0zm9 19c0,0 -1,0 -1,0 0,0 0,0 0,-1l0 -26c0,0 0,0 0,0 0,-1 1,-1 1,-1l0 0c1,0 1,0 1,1 0,0 0,0 0,0l0 2c2,-2 4,-3 7,-3 3,0 5,1 6,3 2,1 2,4 2,6 0,1 0,1 0,2 0,0 0,1 0,1 0,3 0,5 -2,7 -1,1 -3,2 -6,2 -3,0 -5,-1 -7,-3l0 9c0,1 0,1 0,1 0,0 0,0 -1,0l0 0zm8 -9c2,0 3,-1 4,-2 1,-1 2,-3 2,-5 0,-1 0,-1 0,-1 0,-3 -1,-5 -1,-6 -1,-2 -3,-3 -5,-3 -2,0 -4,1 -5,2 -1,2 -2,3 -2,5l0 2 0 1c0,1 1,2 1,3 1,1 1,2 2,3 1,1 2,1 4,1zm15 2c-1,0 -1,0 -1,0 0,-1 0,-1 0,-1l0 -19c0,0 0,0 0,0 0,-1 0,-1 1,-1l0 0c0,0 1,0 1,1 0,0 0,0 0,0l0 8 12 0 0 -8c0,0 0,0 1,0 0,-1 0,-1 0,-1l1 0c0,0 0,0 0,1 1,0 1,0 1,0l0 19c0,0 0,0 -1,1 0,0 0,0 0,0l-1 0c0,0 0,0 0,0 -1,-1 -1,-1 -1,-1l0 -9 -12 0 0 9c0,0 0,0 0,1 0,0 -1,0 -1,0l0 0zm30 0c-3,0 -5,-1 -6,-2 -2,-2 -3,-4 -3,-7l0 -1 0 -2c0,-3 1,-5 3,-7 1,-1 3,-2 6,-2 2,0 4,1 6,3 2,2 2,4 2,7l0 1c0,0 0,0 0,0 0,0 0,1 -1,1l-14 0 0 0c0,1 1,2 1,3 1,1 1,2 2,3 1,1 2,1 4,1 1,0 2,0 3,-1 1,0 2,-1 2,-2 0,0 0,0 1,0 0,0 0,0 0,0l1 0c0,0 0,0 0,0 1,0 1,0 1,0 0,1 -1,2 -1,2 -1,1 -2,2 -3,2 -1,1 -3,1 -4,1zm6 -12l0 0c0,-2 -1,-3 -2,-5 -1,-1 -2,-2 -4,-2 -2,0 -4,1 -5,2 -1,2 -2,3 -2,5l0 0 13 0zm14 12c-1,0 -1,0 -1,0 0,-1 0,-1 0,-1l0 -17 -7 0c-1,0 -1,0 -1,-1 0,0 0,0 0,0l0 -1c0,0 0,0 0,0 0,-1 0,-1 1,-1l16 0c1,0 1,0 1,1 0,0 0,0 0,0l0 1c0,0 0,0 0,0 0,1 0,1 -1,1l-7 0 0 17c0,0 0,0 0,1 0,0 0,0 -1,0l0 0zm14 -11c-1,0 -1,0 -1,0 0,0 0,0 0,-1l0 0c0,-1 0,-1 0,-1 0,0 0,0 1,0l11 0c0,0 1,0 1,0 0,0 0,0 0,1l0 0c0,1 0,1 0,1 0,0 -1,0 -1,0l-11 0zm37 -10c0,0 0,0 1,1 0,0 0,0 0,0l0 19c0,0 0,0 0,1 -1,0 -1,0 -1,0l-1 0c0,0 0,0 0,0 -1,-1 -1,-1 -1,-1l0 -15 -5 11c-1,1 -1,1 -1,1 0,0 0,0 -1,0l0 0c-1,0 -1,0 -1,0 0,0 -1,0 -1,-1l-6 -10 0 14c0,0 0,0 0,1 0,0 0,0 0,0l-1 0c0,0 -1,0 -1,0 0,-1 0,-1 0,-1l0 -19c0,0 0,0 0,0 0,-1 1,-1 1,-1l1 0c0,0 0,1 1,1l7 14 7 -14c0,0 1,-1 1,-1l1 0zm13 21c-2,0 -3,0 -4,-1 -1,0 -2,-1 -2,-2 -1,-1 -1,-2 -1,-3 0,-1 0,-3 2,-4 1,-1 3,-2 5,-2l7 -1 0 -1c0,-2 -1,-3 -2,-4 -1,0 -2,-1 -4,-1 -1,0 -2,1 -3,1 -1,1 -1,1 -2,2 0,0 0,0 0,1 0,0 0,0 -1,0l0 0c0,0 -1,0 -1,0 0,-1 0,-1 0,-1 0,-1 0,-1 1,-2 0,-1 1,-2 2,-2 1,-1 3,-1 4,-1 3,0 5,1 6,2 1,1 2,3 2,5l0 13c0,0 0,0 0,1 0,0 -1,0 -1,0l-1 0c0,0 0,0 0,0 0,-1 0,-1 0,-1l0 -2c-1,1 -2,2 -3,2 -1,1 -3,1 -4,1zm0 -2c2,0 3,-1 5,-2 1,-1 2,-3 2,-5l0 -2 -5 1c-3,0 -4,1 -5,1 -1,1 -2,2 -2,3 0,1 0,2 2,3 1,1 2,1 3,1zm16 2c0,0 0,0 -1,0 0,-1 0,-1 0,-1l0 -19c0,0 0,0 0,0 1,-1 1,-1 1,-1l11 0c0,0 1,0 1,1 0,0 0,0 0,0l0 1c0,0 0,0 0,0 0,1 -1,1 -1,1l-9 0 0 17c0,0 -1,0 -1,1 0,0 0,0 0,0l-1 0zm21 0c-1,0 -2,0 -3,-1 -2,0 -2,-1 -3,-2 -1,-1 -1,-2 -1,-3 0,-1 1,-3 2,-4 2,-1 3,-2 6,-2l6 -1 0 -1c0,-2 0,-3 -1,-4 -1,0 -3,-1 -4,-1 -2,0 -3,1 -4,1 0,1 -1,1 -1,2 0,0 0,0 -1,1 0,0 0,0 0,0l-1 0c0,0 0,0 0,0 -1,-1 -1,-1 -1,-1 0,-1 1,-1 1,-2 1,-1 2,-2 3,-2 1,-1 2,-1 4,-1 2,0 4,1 6,2 1,1 1,3 1,5l0 13c0,0 0,0 0,1 0,0 0,0 0,0l-1 0c0,0 -1,0 -1,0 0,-1 0,-1 0,-1l0 -2c-1,1 -1,2 -3,2 -1,1 -2,1 -4,1zm0 -2c2,0 4,-1 5,-2 1,-1 2,-3 2,-5l0 -2 -5 1c-2,0 -4,1 -5,1 -1,1 -2,2 -2,3 0,1 1,2 2,3 1,1 2,1 3,1zm22 2c-2,0 -3,0 -4,-1 -2,0 -2,-1 -3,-2 -1,-1 -1,-2 -1,-2 0,-1 0,-1 0,-1 1,0 1,0 1,0l1 0c0,0 1,0 1,1 0,1 1,2 2,2 1,1 2,1 3,1 2,0 3,0 4,-1 1,-1 2,-2 2,-3 0,-2 -2,-4 -5,-4l-2 0c0,0 0,0 0,0 0,0 -1,0 -1,0l0 -1c0,0 1,-1 1,-1 0,0 0,0 0,0l2 0c3,0 4,-1 4,-3 0,-1 0,-2 -1,-3 -1,0 -2,-1 -4,-1 -2,0 -3,1 -4,1 0,1 -1,2 -1,3 0,0 -1,1 -1,1l-1 0c0,0 0,0 0,-1 0,0 -1,0 -1,0 0,-2 1,-3 2,-4 2,-1 4,-2 6,-2 2,0 3,0 4,1 1,0 2,1 3,2 0,1 0,2 0,3 0,1 0,2 0,2 0,1 -1,1 -2,2 1,0 2,1 2,2 1,1 1,2 1,3 0,2 -1,4 -2,5 -2,1 -4,1 -6,1zm29 -21c0,0 1,0 1,1 0,0 0,0 0,0l0 19c0,0 0,0 0,1 0,0 -1,0 -1,0l-1 0c0,0 0,0 0,0 0,-1 0,-1 0,-1l0 -16 -13 16c0,1 0,1 -1,1l0 0c-1,0 -1,0 -1,0 0,-1 0,-1 0,-1l0 -19c0,0 0,0 0,0 0,-1 0,-1 1,-1l0 0c1,0 1,0 1,1 0,0 0,0 0,0l0 16 12 -16c1,0 1,-1 1,-1l1 0zm8 21c0,0 0,0 0,0 -1,-1 -1,-1 -1,-1l0 -19c0,0 0,0 1,0 0,-1 0,-1 0,-1l1 0c0,0 0,0 0,1 1,0 1,0 1,0l0 8 12 0 0 -8c0,0 0,0 0,0 0,-1 1,-1 1,-1l0 0c1,0 1,0 1,1 0,0 0,0 0,0l0 19c0,0 0,0 0,1 0,0 0,0 -1,0l0 0c0,0 -1,0 -1,0 0,-1 0,-1 0,-1l0 -9 -12 0 0 9c0,0 0,0 -1,1 0,0 0,0 0,0l-1 0zm-319 42c-3,0 -5,-1 -6,-2 -2,-2 -3,-4 -3,-7l0 -2 0 -1c0,-3 1,-5 3,-7 1,-1 3,-2 6,-2 2,0 3,0 4,1 1,0 2,1 3,2 1,1 1,2 1,3 0,0 0,0 0,1 0,0 -1,0 -1,0l0 0c-1,0 -1,0 -1,0 0,0 0,-1 0,-1 -1,-1 -2,-2 -3,-3 -1,-1 -2,-1 -3,-1 -2,0 -4,1 -5,2 -1,1 -1,3 -1,5l0 1 0 2c0,2 0,4 1,5 1,1 3,2 5,2 1,0 2,-1 3,-1 1,-1 2,-2 3,-3 0,-1 0,-1 0,-1 0,0 0,0 1,0l0 0c0,0 1,0 1,0 0,0 0,0 0,1 0,1 0,2 -1,3 -1,1 -2,1 -3,2 -1,1 -2,1 -4,1zm14 0c0,0 0,-1 -1,-1 0,0 0,0 0,0l0 -19c0,0 0,0 0,-1 1,0 1,0 1,0l15 0c0,0 0,0 0,0 0,1 0,1 0,1l0 19c0,0 0,0 0,0 0,0 0,1 0,1l-1 0c0,0 -1,-1 -1,-1 0,0 0,0 0,0l0 -18 -11 0 0 18c0,0 -1,0 -1,0 0,0 0,1 0,1l-1 0zm29 0c-2,0 -4,-1 -6,-3 -1,-1 -2,-3 -2,-6l0 -2 0 -1c0,-3 1,-5 2,-7 2,-1 4,-2 6,-2 3,0 5,1 7,2 1,2 2,5 2,8l0 0c0,1 0,1 0,1 0,0 -1,0 -1,0l-14 0 0 1c0,1 0,2 1,3 0,1 1,2 2,3 1,0 2,1 3,1 2,0 3,-1 4,-1 1,-1 1,-1 2,-2 0,0 0,0 0,0 0,-1 1,-1 1,-1l1 0c0,0 0,0 0,1 0,0 0,0 0,0 0,1 0,1 -1,2 0,1 -1,2 -3,2 -1,1 -2,1 -4,1zm7 -12l0 0c0,-2 -1,-4 -2,-5 -1,-1 -3,-2 -5,-2 -2,0 -3,1 -4,2 -1,1 -2,3 -2,5l0 0 13 0zm25 17c-1,0 -1,0 -1,-1 0,0 0,0 0,0l0 -4 -16 0c0,0 0,-1 -1,-1 0,0 0,0 0,0l0 -19c0,0 0,0 0,-1 1,0 1,0 1,0l1 0c0,0 0,0 0,0 0,1 1,1 1,1l0 17 11 0 0 -17c0,0 0,0 0,-1 0,0 1,0 1,0l1 0c0,0 0,0 0,0 0,1 0,1 0,1l0 17 2 0c1,0 1,0 1,1 0,0 0,0 0,0l0 6c0,0 0,0 0,0 0,1 0,1 -1,1l0 0zm12 -5c0,0 -1,-1 -1,-1 0,0 0,0 0,0l0 -18 -7 0c0,0 -1,0 -1,0 0,0 0,0 0,0l0 -1c0,0 0,0 0,-1 0,0 1,0 1,0l17 0c0,0 0,0 0,0 0,1 1,1 1,1l0 1c0,0 -1,0 -1,0 0,0 0,0 0,0l-8 0 0 18c0,0 0,0 0,0 0,0 0,1 0,1l-1 0zm21 0c-3,0 -5,-1 -6,-3 -2,-1 -3,-3 -3,-6l0 -2 0 -1c0,-3 1,-5 3,-7 1,-1 3,-2 6,-2 3,0 5,1 6,2 2,2 2,5 2,8l0 0c0,1 0,1 0,1 0,0 0,0 0,0l-14 0 0 1c0,1 0,2 0,3 1,1 2,2 3,3 0,0 2,1 3,1 1,0 2,-1 3,-1 1,-1 2,-1 2,-2 0,0 1,0 1,0 0,-1 0,-1 0,-1l1 0c0,0 0,0 1,1 0,0 0,0 0,0 0,1 0,1 -1,2 -1,1 -2,2 -3,2 -1,1 -3,1 -4,1zm6 -12l0 0c0,-2 0,-4 -2,-5 -1,-1 -2,-2 -4,-2 -2,0 -4,1 -5,2 -1,1 -1,3 -1,5l0 0 12 0zm7 12c-1,0 -1,-1 -1,-1 0,0 0,0 0,0 0,-1 0,-1 0,-1l7 -9 -6 -8c-1,-1 -1,-1 -1,-1 0,0 0,0 0,-1 1,0 1,0 1,0l1 0c0,0 0,0 0,0 0,0 1,1 1,1l6 7 6 -7c0,0 0,0 0,0 0,-1 0,-1 0,-1 0,0 0,0 1,0l0 0c1,0 1,0 1,0 0,1 0,1 0,1 0,0 0,0 0,1l-7 8 7 9c0,0 0,0 0,1 0,0 0,0 0,0 0,0 0,1 0,1l-1 0c-1,0 -1,-1 -1,-1l-6 -8 -7 8c0,0 0,0 0,0 0,0 0,1 -1,1l0 0zm22 0c0,0 -1,-1 -1,-1 0,0 0,0 0,0l0 -19c0,0 0,0 0,-1 0,0 1,0 1,0l0 0c1,0 1,0 1,0 0,1 0,1 0,1l0 8 13 0 0 -8c0,0 0,0 0,-1 0,0 0,0 0,0l1 0c0,0 1,0 1,0 0,1 0,1 0,1l0 19c0,0 0,0 0,0 0,0 -1,1 -1,1l-1 0c0,0 0,-1 0,-1 0,0 0,0 0,0l0 -9 -13 0 0 9c0,0 0,0 0,0 0,0 0,1 -1,1l0 0zm39 -21c0,0 0,0 0,0 0,1 0,1 0,1l0 19c0,0 0,0 0,0 0,0 0,1 0,1l-1 0c0,0 -1,-1 -1,-1 0,0 0,0 0,0l0 -16 -12 16c0,0 -1,1 -1,1l-1 0c0,0 0,-1 0,-1 -1,0 -1,0 -1,0l0 -19c0,0 0,0 1,-1 0,0 0,0 0,0l1 0c0,0 0,0 1,0 0,1 0,1 0,1l0 16 12 -16c0,-1 0,-1 1,-1l1 0zm22 19c0,1 0,1 0,1 0,0 0,1 0,1l-1 0c-1,0 -1,-1 -1,-1l-7 -9 -4 0 0 9c0,0 0,0 0,0 0,0 0,1 -1,1l0 0c-1,0 -1,-1 -1,-1 0,0 0,0 0,0l0 -19c0,0 0,0 0,-1 0,0 0,0 1,0l0 0c1,0 1,0 1,0 0,1 0,1 0,1l0 8 4 0 6 -8c0,-1 1,-1 1,-1l1 0c0,0 0,0 0,0 1,0 1,1 1,1 0,0 0,0 -1,0l-6 9 7 9z"/>
  <path class="fil5" d="M423 130c0,0 0,0 0,0 1,1 1,1 1,1l0 19c0,0 0,0 -1,0 0,0 0,1 0,1l-1 0c0,0 0,-1 -1,-1 0,0 0,0 0,0l0 -16 -12 16c0,0 -1,1 -1,1l-1 0c0,0 0,-1 0,-1 0,0 0,0 0,0l0 -19c0,0 0,0 0,-1 0,0 0,0 0,0l1 0c0,0 1,0 1,0 0,1 0,1 0,1l0 16 12 -16c0,-1 1,-1 1,-1l1 0z"/>
 </g>
</svg>
