<?xml version="1.0" encoding="UTF-8"?>
<!DOCTYPE svg PUBLIC "-//W3C//DTD SVG 1.1//EN" "http://www.w3.org/Graphics/SVG/1.1/DTD/svg11.dtd">
<!-- Creator: CorelDRAW X7 -->
<svg xmlns="http://www.w3.org/2000/svg" xml:space="preserve" width="40px" height="40px" version="1.1" style="shape-rendering:geometricPrecision; text-rendering:geometricPrecision; image-rendering:optimizeQuality; fill-rule:evenodd; clip-rule:evenodd"
viewBox="0 0 40 40"
 xmlns:xlink="http://www.w3.org/1999/xlink">
 <defs>
  <style type="text/css">
   <![CDATA[
    .fil0 {fill:#58595B}
    .fil1 {fill:white}
   ]]>
  </style>
 </defs>
 <g id="Слой_x0020_1">
  <metadata id="CorelCorpID_0Corel-Layer"/>
  <path class="fil0" d="M34 20l3 0c0,0 1,1 1,2l0 10c0,0 -1,1 -1,1l-3 0c-1,0 -1,-1 -1,-1l0 -10c0,-1 0,-2 1,-2z"/>
  <polygon class="fil0" points="8,24 31,24 31,29 8,29 "/>
  <path class="fil0" d="M20 22c2,0 4,2 4,5 0,2 -2,4 -4,4 -3,0 -5,-2 -5,-4 0,-3 2,-5 5,-5z"/>
  <path class="fil0" d="M3 20l2 0c1,0 2,1 2,2l0 10c0,0 -1,1 -2,1l-2 0c-1,0 -2,-1 -2,-1l0 -10c0,-1 1,-2 2,-2z"/>
  <polygon class="fil0" points="27,20 31,20 31,21 27,21 "/>
  <polygon class="fil0" points="8,20 12,20 12,21 8,21 "/>
  <rect class="fil0" x="1" y="6" width="37.5007" height="10.9998"/>
  <rect class="fil1" x="12" y="11" width="15.0003" height="1.75043"/>
 </g>
</svg>
